<svg xmlns="http://www.w3.org/2000/svg" viewBox="0 0 900 400" width="450" height="200">
  <defs>
    <!-- Clean gradient for subtitle -->
    <linearGradient id="subtitleGradient" x1="0%" y1="0%" x2="100%" y2="0%">
      <stop offset="0%" style="stop-color:#1B5E20;stop-opacity:1" />
      <stop offset="100%" style="stop-color:#43A047;stop-opacity:1" />
    </linearGradient>
    
    <!-- Audio/Video accent color -->
    <linearGradient id="avGradient" x1="0%" y1="0%" x2="100%" y2="0%">
      <stop offset="0%" style="stop-color:#1976D2;stop-opacity:1" />
      <stop offset="100%" style="stop-color:#42A5F5;stop-opacity:1" />
    </linearGradient>
    
    <!-- Subtle shadow -->
    <filter id="textShadow" x="-20%" y="-20%" width="140%" height="140%">
      <feDropShadow dx="1" dy="1" stdDeviation="2" flood-color="rgba(0,0,0,0.2)"/>
    </filter>
  </defs>
  
  <!-- Clean background -->
  <rect width="900" height="400" fill="#ffffff"/>
  
  <!-- GR Path - original positioning -->
  <g id="gr" transform="translate(120, 40) scale(0.5)">
    <path d="M171,1.6c-32.6,3.9 -60.4,13.7 -84.5,29.9 -46.5,31.2 -76.8,79.7 -83.4,133.5 -1.6,12.2 -1.3,42.7 0.4,54.7 3.7,26.2 14.3,55.7 27,75.4 22,34.1 57.9,62.8 96.5,77.2 10.5,3.9 30.2,8.9 42.5,10.8 9,1.4 77.2,2.5 148,2.4l45,-0 0.7,-33c0.7,-32.7 0,-198.3 -0.9,-199.8 -0.2,-0.4 -27.6,-0.7 -60.7,-0.7 -49.9,-0 -60.6,0.2 -61.5,1.4 -0.8,0.9 -1.1,10.7 -0.9,33.7l0.3,32.4 32.8,0.3 32.7,0.2 0,49.6 0,49.5 -59.2,-0.4c-64.9,-0.4 -68.7,-0.7 -90.3,-6.7 -54.2,-15.3 -85.4,-58.7 -85.5,-119.2 0,-31.9 9.7,-58.6 30,-82.5 13.2,-15.6 36.6,-30.9 57.5,-37.6 19.8,-6.4 11.8,-6.1 157.5,-6 121.5,0.1 133,0.2 139,1.8 18.2,4.7 30.3,14.3 34.5,27.3 1.4,4.2 1.7,7.8 1.3,18 -0.4,11.3 -0.7,13.4 -3.3,19 -4.4,9.7 -11.7,15.1 -24.4,17.8 -5,1 -15.7,1.4 -44.2,1.4 -27.8,-0 -37.8,0.3 -38.7,1.2 -0.9,0.9 -1.2,9.5 -1.2,32.4 0,17.2 0.3,31.9 0.6,32.8 0.5,1.4 3.2,1.6 19,1.6l18.4,-0 3.6,7.2c2,4 11.6,22.1 21.4,40.3 15.8,29.4 23.6,44 53.2,100 4.4,8.2 8.9,15.8 10,16.8 1.8,1.5 5.1,1.7 37.2,1.7 19.4,-0 35.6,-0.3 35.9,-0.6 0.4,-0.4 -1.3,-4.3 -3.7,-8.8 -10.1,-18.7 -39.7,-73.9 -44.8,-83.6 -17.3,-32.8 -24.5,-46.2 -32.7,-61.3 -5.1,-9.3 -9.1,-17.3 -8.9,-17.8 0.2,-0.5 4.6,-2.9 9.9,-5.2 22.4,-10.1 36.3,-21.8 46.8,-39.2 12.9,-21.4 17,-63 9.1,-94 -8.8,-34.4 -37.2,-58.5 -82.7,-70 -3.4,-0.8 -12.1,-2.4 -19.3,-3.5 -12.7,-1.9 -18.1,-2 -140.9,-1.9 -101.1,0.1 -130,0.4 -139.1,1.5z"
          fill="#2c2c2c" 
          filter="url(#textShadow)"/>
  </g>
  
  <!-- OVE text -->
  <text x="400" y="232" 
        font-size="150" 
        font-weight="bold" 
        font-family="Arial, sans-serif"
        fill="#2c2c2c" 
        filter="url(#textShadow)">OVE</text>
  

  <!-- Simple separator line -->
  <line x1="350" y1="300" x2="550" y2="300" 
        stroke="#e0e0e0" 
        stroke-width="1"/>
  
  <!-- SCHEDULER subtitle - enhanced but clean -->
  <text x="450" y="340" 
        font-size="42" 
        font-weight="700"
        font-family="Arial, sans-serif"
        fill="url(#subtitleGradient)"
        text-anchor="middle"
        letter-spacing="3px"
        filter="url(#textShadow)">SlideCraft
</text>
  
 
</svg>